#!OML:ASF F:\VICON\USERDATA\INSTALL\rory3\rory3.ASF
:FULLY-SPECIFIED
:DEGREES
1
root -6.030071874609478 17.842804114597 0.23327500323215783 -105.45199773034108 85.36608337188923 -123.6789960922097
lfemur -31.66058834865852 10.187096105448619 -8.675576914424722
ltibia 27.976201007392774
lfoot -10.03548900666698 -3.108503420504542
ltoes -21.679993235949166
rfemur -29.759592138580096 -2.0305063480942573 11.754511564187126
rtibia 25.088999301810556
rfoot -7.488891969817531 -9.98055975481616
rtoes -5.720992868521012
lowerback 0.1914644872266167 2.1983997085152707 -1.3329787163765427
upperback 3.7641001650807997 2.9482794915190604 3.863425647748329
thorax 3.504521645437541 1.4074088800476168 4.829014444952671
lowerneck -15.614084414633549 -2.385168653925013 1.0502050636121663
upperneck 39.522578493135626 -0.4121352111131471 -3.876512200520038
head 16.9708765689541 0.026300838219903477 -1.8323459255610794
lclavicle -5.0081948824397895e-15 -1.0203021010368916e-14
lhumerus -10.238579814542291 -51.11539259681689 110.21897990898185
lradius 22.067210913364722
lwrist 29.74099243714926
lhand -7.022385668338833 71.54007794736917
lfingers 7.125020000000001
lthumb -161.15100531223624 79.35319901112277
rclavicle -5.0081948824397895e-15 -1.0203021010368916e-14
rhumerus -6.915537571965608 -0.8999050141236813 -102.46898428845985
rradius 22.290017828456314
rwrist -41.717292187254515
rhand -14.8576153653363 -7.408995843505789
rfingers 7.125020000000001
rthumb 11.30208276042519 -37.08448528428839
2
root -6.036681726360066 17.83900433686314 0.23223799441318121 -107.76999749174526 85.23518411289712 -126.02399730887566
lfemur -31.898687728896746 10.077796144687076 -8.63258712391479
ltibia 28.218000677247733
lfoot -10.092287553595105 -3.283913744637358
ltoes -20.641193684632288
rfemur -30.00329174322289 -2.0835163171500355 11.739910984543059
rtibia 25.56809877940033
rfoot -7.828422524149514 -9.973459760278685
rtoes -4.7442424057185235
lowerback 0.19537558266682487 2.248799665556768 -1.1306888765599352
upperback 3.770969892117738 3.01314941112516 3.868025653145096
thorax 3.5128714656197797 1.446458808237697 4.720914609198539
lowerneck -15.642583935911825 -2.4707285255577274 0.9348933667829175
upperneck 39.53687942420159 -0.5324521966445581 -3.786332390935698
head 16.9826769148623 -0.025165321114993755 -1.793046292073082
lclavicle -5.0081953013244246e-15 -1.0203021539510821e-14
lhumerus -10.142880914068968 -53.18149301586693 109.99997635801947
lradius 22.189810410877858
lwrist 29.656292069505376
lhand -5.737946182909415 70.81117705401913
lfingers 7.125020000000001
lthumb -159.9160065106122 80.20689852337497
rclavicle -5.0081953013244246e-15 -1.0203021539510821e-14
rhumerus -7.2747518494047725 -0.5490885643133607 -102.43298366616406
rradius 23.04671715042226
rwrist -43.59399137020333
rhand -15.756315478208705 -7.1249256211961445
rfingers 7.125020000000001
rthumb 10.435284474648945 -36.845984706459014
3
root -6.0475815186918584 17.824905165209273 0.24702594920984172 -106.22699732071663 85.45708266417893 -124.25399756608044
lfemur -31.77358785206644 10.462695825003225 -8.78765690600479
ltibia 28.443700311582862
lfoot -10.337488278909703 -3.4159632144929333
ltoes -21.747693392405846
rfemur -30.266391607406305 -1.852346497825411 11.608411120816111
rtibia 26.291198006519153
rfoot -7.923751810904858 -9.872409814904382
rtoes -9.790600176140135
lowerback 0.4132073278972288 2.3370395834015936 -1.285128708008995
upperback 3.853280339953315 3.1356593169130806 3.801805774555306
thorax 3.4602015513998694 1.5041787357305043 4.733064753016352
lowerneck -15.438384795745584 -2.443638703066319 0.8054307162990882
upperneck 39.29807967213799 -0.49605316490927986 -3.7219325025874905
head 16.804177386255123 -0.026316516496766695 -1.7253669432754002
lclavicle -5.00819541410095e-15 -1.020302184817654e-14
lhumerus -9.868646554827748 -57.02499162897529 109.26597825713714
lradius 22.746110218232605
lwrist 30.80179196276474
lhand -3.835027849741275 70.64487700933111
lfingers 7.125020000000001
lthumb -158.0880078868002 80.5759987659311
rclavicle -5.00819541410095e-15 -1.020302184817654e-14
rhumerus -8.023601603125343 0.14253847198123104 -102.46698278110836
rradius 24.39961612648281
rwrist -46.18639058579734
rhand -16.70191486414389 -6.629915231549095
rfingers 7.125020000000001
rthumb 9.522965702697242 -36.394684650563995
4
root -6.065971136205002 17.810905982474846 0.2697918765754905 -97.54919871653543 85.89138371871057 -115.35699807243395
lfemur -31.51108907597247 10.854395723801682 -8.791556731606006
ltibia 28.74429984580431
lfoot -10.54598796366731 -3.140283494524315
ltoes -20.54859434714086
rfemur -30.830892100987143 -0.8735713642874705 11.327711556963008
rtibia 27.23859704013745
rfoot -13.278990048847579 -6.346411086275287
rtoes 54.39937886709771
lowerback 0.6481539319508403 2.31864958125317 -1.729518313584588
upperback 3.7969199679784253 3.1164993300331165 3.8140356538973723
thorax 3.2481922012636195 1.4847887371417419 4.982034077984935
lowerneck -14.774586527296899 -2.1619187363238526 0.31631617662279343
upperneck 39.04197876336113 0.08371284492514364 -3.6887225608281193
head 16.528877662701106 0.1456970323181196 -1.5032190081676804
lclavicle -5.008195101548438e-15 -1.0203021611165451e-14
lhumerus -9.919472450117055 -61.63979161468645 108.56498098918422
lradius 23.68390951964488
lwrist 32.793090535989165
lhand -2.1025495324070302 72.36587851634921
lfingers 7.125020000000001
lthumb -156.42500951792775 79.05919906134463
rclavicle -5.008195101548438e-15 -1.0203021611165451e-14
rhumerus -9.466836357918119 1.8987415364686715 -102.6419821242086
rradius 26.361516945717142
rwrist -49.00769021251109
rhand -17.82361558989359 -6.929875481844661
rfingers 7.125020000000001
rthumb 8.440595430959085 -36.74118425118886
